<svg width="512" height="512" viewBox="0 0 512 512" fill="none" xmlns="http://www.w3.org/2000/svg">
<path fill-rule="evenodd" clip-rule="evenodd" d="M315.912 167.874C314.214 167.874 313.017 168.079 311.809 168.375V168.576H312.004C312.812 170.169 314.214 171.276 315.206 172.671C316.012 174.268 316.714 175.859 317.513 177.458C317.611 177.36 317.708 177.256 317.708 177.256C319.119 176.262 319.818 174.667 319.818 172.268C319.213 171.564 319.119 170.871 318.614 170.169C318.016 169.173 316.714 168.674 315.912 167.874Z" fill="#5B85A4"/>
<path d="M156.722 364.9H142.862C142.373 341.562 141.023 319.618 138.814 299.061H138.692L117.589 364.9H107.036L86.0604 299.061H85.9369C84.3809 318.803 83.4022 340.748 82.9956 364.9H70.3579C71.1746 335.527 73.218 307.992 76.4892 282.289H93.6683L113.665 342.989H113.788L133.907 282.289H150.344C153.944 312.392 156.069 339.935 156.722 364.9Z" fill="#2C7493"/>
<path d="M216.836 303.951C211.192 334.501 203.747 356.702 194.507 370.551C187.306 381.223 179.419 386.559 170.83 386.559C168.54 386.559 165.716 385.871 162.366 384.504V377.139C164.003 377.378 165.923 377.506 168.132 377.506C172.139 377.506 175.368 376.401 177.825 374.196C180.767 371.509 182.24 368.49 182.24 365.143C182.24 362.857 181.092 358.167 178.805 351.072L163.594 303.951H177.21L188.127 339.193C190.58 347.195 191.603 352.78 191.194 355.964C197.165 340.054 201.336 322.716 203.709 303.951H216.836Z" fill="#2C7493"/>
<path d="M401.344 364.9H361.966V282.289H375.217V354.738H401.344V364.9Z" fill="#F18513"/>
<path fill-rule="evenodd" clip-rule="evenodd" d="M302.345 348.374C298.991 342.989 297.31 334.348 297.31 322.433C297.31 301.631 303.651 291.222 316.327 291.222C322.954 291.222 327.818 293.712 330.928 298.685C334.278 304.072 335.959 312.639 335.959 324.388C335.959 345.356 329.618 355.844 316.942 355.844C310.317 355.844 305.451 353.358 302.345 348.374ZM351.661 366.892L336.44 359.404C337.795 358.295 339.082 357.099 340.247 355.714C346.71 348.135 349.945 336.917 349.945 322.065C349.945 294.735 339.189 281.063 317.68 281.063C307.129 281.063 298.907 284.529 293.019 291.47C286.555 299.058 283.326 310.234 283.326 325.003C283.326 339.524 286.187 350.176 291.912 356.943C297.148 363.06 305.041 366.122 315.593 366.122C319.533 366.122 323.149 365.638 326.434 364.67L346.257 376.177L351.661 366.892Z" fill="#F18513"/>
<path d="M277.552 342.001C277.552 349.007 274.972 354.759 269.828 359.259C264.68 363.739 257.764 365.985 249.103 365.985C241.003 365.985 233.153 363.4 225.548 358.272L229.106 351.176C235.65 354.439 241.571 356.069 246.888 356.069C251.876 356.069 255.78 354.961 258.604 352.774C261.422 350.57 263.111 347.497 263.111 343.599C263.111 338.694 259.681 334.501 253.39 330.984C247.581 327.804 235.972 321.165 235.972 321.165C229.683 316.588 226.529 311.678 226.529 303.586C226.529 296.894 228.881 291.485 233.578 287.369C238.286 283.246 244.359 281.184 251.797 281.184C259.485 281.184 266.476 283.231 272.772 287.309L269.573 294.399C264.186 292.12 258.873 290.977 253.636 290.977C249.385 290.977 246.11 291.995 243.827 294.042C241.531 296.072 240.111 298.685 240.111 301.869C240.111 306.762 243.615 311.005 250.084 314.591C255.966 317.772 267.859 324.539 267.859 324.539C274.328 329.108 277.552 333.979 277.552 342.001Z" fill="#F18513"/>
<path fill-rule="evenodd" clip-rule="evenodd" d="M417.972 254.617C409.963 254.417 403.761 255.215 398.56 257.412C397.059 258.01 394.66 258.01 394.455 259.907C395.261 260.704 395.357 262.001 396.063 263.104C397.26 265.1 399.357 267.791 401.262 269.192C403.364 270.79 405.465 272.381 407.669 273.778C411.569 276.184 415.973 277.575 419.77 279.972C421.978 281.367 424.172 283.162 426.38 284.664C427.477 285.462 428.172 286.761 429.578 287.255V286.953C428.873 286.057 428.676 284.759 427.979 283.756C426.981 282.765 425.978 281.861 424.976 280.867C422.072 276.975 418.466 273.585 414.573 270.79C411.368 268.588 404.36 265.593 403.064 261.911C403.064 261.911 402.96 261.805 402.861 261.707C405.063 261.504 407.669 260.704 409.769 260.099C413.166 259.203 416.268 259.406 419.77 258.51C421.373 258.108 422.975 257.605 424.582 257.115V256.21C422.771 254.417 421.476 252.018 419.575 250.323C414.476 245.933 408.867 241.644 403.064 238.045C399.958 236.048 395.956 234.757 392.653 233.056C391.458 232.456 389.459 232.16 388.756 231.156C386.953 228.961 385.949 226.071 384.651 223.471C381.752 217.988 378.945 211.901 376.448 206.102C374.648 202.212 373.547 198.322 371.345 194.727C361.034 177.755 349.831 167.48 332.621 157.397C328.919 155.298 324.517 154.4 319.818 153.302C317.312 153.197 314.813 153.003 312.312 152.905C310.708 152.204 309.105 150.305 307.707 149.408C302.001 145.816 287.299 138.032 283.093 148.311C280.391 154.803 287.095 161.188 289.398 164.483C291.098 166.776 293.302 169.376 294.497 171.967C295.198 173.664 295.399 175.464 296.102 177.258C297.701 181.649 299.2 186.541 301.306 190.636C302.403 192.733 303.602 194.931 305.002 196.819C305.81 197.923 307.206 198.416 307.508 200.218C306.112 202.212 306.003 205.206 305.203 207.704C301.603 218.983 303.001 232.957 308.106 241.241C309.703 243.736 313.511 249.227 318.614 247.126C323.116 245.333 322.116 239.643 323.416 234.655C323.715 233.449 323.514 232.658 324.113 231.86V232.062C325.513 234.853 326.918 237.541 328.217 240.345C331.324 245.231 336.722 250.323 341.229 253.713C343.623 255.517 345.526 258.606 348.527 259.707V259.406H348.331C347.728 258.51 346.83 258.108 346.028 257.412C344.228 255.614 342.231 253.418 340.825 251.422C336.624 245.835 332.917 239.643 329.622 233.256C328.016 230.154 326.618 226.764 325.316 223.671C324.718 222.479 324.718 220.677 323.715 220.08C322.21 222.273 320.014 224.173 318.916 226.859C317.013 231.156 316.814 236.445 316.109 241.938C315.711 242.042 315.912 241.938 315.711 242.136C312.513 241.338 311.412 238.045 310.208 235.259C307.206 228.163 306.702 216.785 309.308 208.6C310.005 206.507 313.015 199.92 311.809 197.923C311.204 196.019 309.205 194.931 308.106 193.428C306.809 191.532 305.4 189.141 304.508 187.04C302.105 181.453 300.898 175.262 298.304 169.674C297.103 167.075 294.997 164.379 293.302 161.988C291.397 159.292 289.297 157.397 287.795 154.206C287.299 153.106 286.597 151.308 287.395 150.114C287.591 149.314 287.998 149.013 288.799 148.813C290.093 147.714 293.8 149.109 295.097 149.708C298.802 151.201 301.904 152.607 305.002 154.699C306.405 155.699 307.906 157.595 309.703 158.098H311.809C315.01 158.791 318.614 158.292 321.618 159.194C326.918 160.89 331.719 163.385 336.025 166.081C349.128 174.366 359.935 186.147 367.236 200.218C368.439 202.511 368.944 204.609 370.043 207C372.144 211.901 374.748 216.891 376.846 221.678C378.945 226.369 380.95 231.156 383.956 235.055C385.453 237.148 391.458 238.246 394.16 239.345C396.157 240.24 399.263 241.04 401.066 242.136C404.467 244.229 407.862 246.628 411.069 248.927C412.666 250.125 417.67 252.618 417.972 254.617Z" fill="#2C7493"/>
<path d="M410.802 364.892H412.997V356.487H415.87V354.77H407.817V356.487H410.802V364.892ZM427.509 364.892H429.578V354.77H426.466L423.932 361.669L421.174 354.77H418.175V364.892H420.133V357.188H420.244L423.133 364.892H424.625L427.509 357.188V364.892Z" fill="#F18513"/>
</svg>
